<?xml version="1.0" standalone="no"?>
<!DOCTYPE svg PUBLIC "-//W3C//DTD SVG 1.1//EN"
  "http://www.w3.org/Graphics/SVG/1.1/DTD/svg11.dtd">
<svg width="49mm" height="86.81400299072264mm" viewBox="-5 -18.999999999999996 49 86.81400299072264" xmlns="http://www.w3.org/2000/svg" version="1.1">
	<title>svgOutput</title>
	<desc>made with tinkercad</desc>
<path d="M 35 60.813999176025376 L 36 60.813999176025376 L 39 60.813999176025376 L 39 64.81400299072264 L 36 64.81400299072264 L 35 64.81400299072264 L 35 60.813999176025376 M 38 40.81399917602538 L 42 40.81399917602538 L 42 44.81399917602538 L 38 44.81399917602538 L 38 40.81399917602538 M 36 47.114246368408196 L 36.86399841308594 47.114246368408196 L 40.959999084472656 47.114246368408196 L 42 47.114246368408196 L 42 49.15200042724608 L 42 50.51375579833983 L 40.959999084472656 50.51375579833983 L 36.86399841308594 50.51375579833983 L 36 50.51375579833983 L 36 49.15200042724608 L 36 47.114246368408196 M 43 13.699754714965817 L 42 13.699754714965817 L 40.959999084472656 13.699754714965817 L 38 13.699754714965817 L 37 13.699754714965817 L 37 12.28800010681152 L 37 10.300245285034178 L 38 10.300245285034178 L 40.959999084472656 10.300245285034178 L 42 10.300245285034178 L 43 10.300245285034178 L 43 12.28800010681152 L 43 13.699754714965817 M 36 24.999999999999993 L 37 24.999999999999993 L 38 24.999999999999993 L 40 24.999999999999993 L 40 28.999999999999993 L 38 28.999999999999993 L 37 28.999999999999993 L 36 28.999999999999993 L 36 24.999999999999993 M 42 7.999999999999998 L 38 7.999999999999998 L 38 3.999999999999999 L 42 3.999999999999999 L 42 7.999999999999998 M 1 66.81400299072264 L -3 66.81400299072264 L -3 62.813999176025376 L 1 62.813999176025376 L 1 66.81400299072264 M 2 14.699754714965817 L 1 14.699754714965817 L 0 14.699754714965817 L -3 14.699754714965817 L -4 14.699754714965817 L -4 12.28800010681152 L -4 11.300245285034178 L -3 11.300245285034178 L 0 11.300245285034178 L 1 11.300245285034178 L 2 11.300245285034178 L 2 12.28800010681152 L 2 14.699754714965817 M -3 25.999999999999993 L 1 25.999999999999993 L 1 29.999999999999993 L -3 29.999999999999993 L -3 25.999999999999993 M -3 2.999999999999999 L 1 2.999999999999999 L 1 6.999999999999998 L -3 6.999999999999998 L -3 2.999999999999999 M -3 41.81399917602538 L 1 41.81399917602538 L 1 45.81399917602538 L -3 45.81399917602538 L -3 41.81399917602538 M 2 53.51375579833983 L 0 53.51375579833983 L -4 53.51375579833983 L -4 53.2480010986328 L -4 50.11424636840819 L 0 50.11424636840819 L 2 50.11424636840819 L 2 53.2480010986328 L 2 53.51375579833983 M 20.023120880126953 43.81863784790038 L 20.99837303161621 43.81863784790038 L 21.877161026000977 44.24186706542968 L 22.48524284362793 45.00399017333984 L 22.49709129333496 45.05599975585937 L 22.7019100189209 45.95500183105468 L 22.48524284362793 46.905506134033196 L 21.877161026000977 47.668132781982415 L 20.99837303161621 48.091361999511705 L 20.023120880126953 48.091361999511705 L 19.144332885742188 47.668132781982415 L 18.536252975463867 46.905506134033196 L 18.3195858001709 45.95500183105468 L 18.524402618408203 45.05599975585937 L 18.536252975463867 45.00399017333984 L 19.144332885742188 44.24186706542968 L 20.023120880126953 43.81863784790038 M 11 -17.999999999999996 L 31 -17.999999999999996 L 31 -0.9999999999999997 L 31 38.81399917602538 L 31 41.627998352050774 L 30.260000228881836 41.627998352050774 L 29.271848678588867 41.627998352050774 L 29.216646194458008 41.627998352050774 L 27.744903564453125 41.627998352050774 L 25.769737243652344 41.627998352050774 L 25.769399642944336 41.627998352050774 L 24.849153518676758 41.627998352050774 L 24.576000213623047 41.627998352050774 L 23.247949600219727 41.627998352050774 L 21.70417022705078 41.627998352050774 L 19.893474578857422 41.627998352050774 L 16.384000778198242 41.627998352050774 L 16.17348289489746 41.627998352050774 L 15.460840225219727 41.627998352050774 L 15.4592866897583 41.627998352050774 L 13.276773452758789 41.627998352050774 L 11.804353713989258 41.627998352050774 L 11 41.627998352050774 L 11 39.98622512817382 L 11 39.81399917602538 L 11 -17.999999999999996 z" fill="none" stroke="rgb(255,0,0)" stroke-width="0.001mm" />
</svg>